<svg id="Layer_3" data-name="Layer 3" xmlns="http://www.w3.org/2000/svg" viewBox="0 0 732 186"><defs><style>.cls-1{opacity:0.3;}.cls-10,.cls-11,.cls-12,.cls-13,.cls-14,.cls-15,.cls-16,.cls-17,.cls-18,.cls-19,.cls-2,.cls-24,.cls-25,.cls-27,.cls-28,.cls-29,.cls-3,.cls-31,.cls-32,.cls-33,.cls-4,.cls-5,.cls-6,.cls-7,.cls-8,.cls-9{fill:none;}.cls-10,.cls-11,.cls-12,.cls-13,.cls-14,.cls-15,.cls-16,.cls-17,.cls-18,.cls-19,.cls-2,.cls-20,.cls-21,.cls-25,.cls-26,.cls-27,.cls-28,.cls-29,.cls-3,.cls-31,.cls-32,.cls-33,.cls-4,.cls-5,.cls-6,.cls-7,.cls-8,.cls-9{stroke:#0073ae;}.cls-10,.cls-11,.cls-12,.cls-13,.cls-14,.cls-15,.cls-16,.cls-17,.cls-18,.cls-19,.cls-2,.cls-24,.cls-25,.cls-27,.cls-28,.cls-3,.cls-31,.cls-4,.cls-5,.cls-6,.cls-7,.cls-8,.cls-9{stroke-linecap:round;stroke-linejoin:round;}.cls-10,.cls-11,.cls-12,.cls-13,.cls-14,.cls-15,.cls-16,.cls-17,.cls-18,.cls-19,.cls-2,.cls-3,.cls-4,.cls-5,.cls-6,.cls-7,.cls-8,.cls-9{stroke-width:3px;}.cls-3{stroke-dasharray:0 6.67;}.cls-4{stroke-dasharray:0 8;}.cls-5{stroke-dasharray:0 6.63;}.cls-6{stroke-dasharray:0 7.33;}.cls-7{stroke-dasharray:0 6.92;}.cls-8{stroke-dasharray:0 7.12;}.cls-9{stroke-dasharray:0 6.25;}.cls-10{stroke-dasharray:0 7.07;}.cls-11{stroke-dasharray:0 7.25;}.cls-12{stroke-dasharray:0 7.4;}.cls-13{stroke-dasharray:0 6.9;}.cls-14{stroke-dasharray:0 7.2;}.cls-15{stroke-dasharray:0 7.06;}.cls-16{stroke-dasharray:0 7;}.cls-17{stroke-dasharray:0 7.67;}.cls-18{stroke-dasharray:0 6.87;}.cls-19{stroke-dasharray:0 6;}.cls-20{fill:#b2d5e6;}.cls-20,.cls-21,.cls-22,.cls-26,.cls-29,.cls-32,.cls-33{stroke-miterlimit:10;}.cls-20,.cls-21,.cls-22,.cls-24,.cls-25,.cls-27,.cls-28,.cls-29,.cls-32{stroke-width:2px;}.cls-21{fill:#fff;}.cls-22{fill:#ffdbb2;stroke:#f80;}.cls-23,.cls-26,.cls-30{fill:#0073ae;}.cls-23{opacity:0.5;}.cls-24{stroke:#fff;}.cls-25{opacity:0.2;}.cls-26{stroke-width:0.75px;}.cls-28,.cls-32{fill-rule:evenodd;}.cls-31,.cls-33{stroke-width:1.75px;}</style></defs><title>img-1</title><g class="cls-1"><line class="cls-2" x1="209.5" y1="26.5" x2="209.5" y2="26.5"/><line class="cls-3" x1="216.17" y1="26.5" x2="226.17" y2="26.5"/><line class="cls-2" x1="229.5" y1="26.5" x2="229.5" y2="26.5"/><line class="cls-4" x1="229.5" y1="34.5" x2="229.5" y2="38.5"/><line class="cls-2" x1="229.5" y1="42.5" x2="229.5" y2="42.5"/><line class="cls-5" x1="236.13" y1="42.5" x2="279.19" y2="42.5"/><line class="cls-2" x1="282.5" y1="42.5" x2="282.5" y2="42.5"/></g><g class="cls-1"><line class="cls-2" x1="94.5" y1="46.5" x2="94.5" y2="46.5"/><line class="cls-6" x1="101.83" y1="46.5" x2="112.83" y2="46.5"/><line class="cls-2" x1="116.5" y1="46.5" x2="116.5" y2="46.5"/><line class="cls-4" x1="116.5" y1="54.5" x2="116.5" y2="66.5"/><line class="cls-2" x1="116.5" y1="70.5" x2="116.5" y2="70.5"/><line class="cls-7" x1="123.42" y1="70.5" x2="279.04" y2="70.5"/><line class="cls-2" x1="282.5" y1="70.5" x2="282.5" y2="70.5"/></g><g class="cls-1"><line class="cls-2" x1="55.5" y1="119.5" x2="55.5" y2="119.5"/><line class="cls-8" x1="62.62" y1="119.5" x2="172.94" y2="119.5"/><line class="cls-2" x1="176.5" y1="119.5" x2="176.5" y2="119.5"/><line class="cls-9" x1="176.5" y1="113.25" x2="176.5" y2="97.63"/><line class="cls-2" x1="176.5" y1="94.5" x2="176.5" y2="94.5"/><line class="cls-10" x1="183.57" y1="94.5" x2="278.97" y2="94.5"/><line class="cls-2" x1="282.5" y1="94.5" x2="282.5" y2="94.5"/></g><g class="cls-1"><line class="cls-2" x1="154.5" y1="160.5" x2="154.5" y2="160.5"/><line class="cls-11" x1="161.75" y1="160.5" x2="208.88" y2="160.5"/><line class="cls-2" x1="212.5" y1="160.5" x2="212.5" y2="160.5"/><line class="cls-12" x1="212.5" y1="153.1" x2="212.5" y2="127.2"/><line class="cls-2" x1="212.5" y1="123.5" x2="212.5" y2="123.5"/><line class="cls-13" x1="219.4" y1="123.5" x2="278.05" y2="123.5"/><line class="cls-2" x1="281.5" y1="123.5" x2="281.5" y2="123.5"/></g><g class="cls-1"><line class="cls-2" x1="586.5" y1="26.5" x2="586.5" y2="26.5"/><line class="cls-3" x1="579.83" y1="26.5" x2="529.83" y2="26.5"/><line class="cls-2" x1="526.5" y1="26.5" x2="526.5" y2="26.5"/><line class="cls-14" x1="526.5" y1="33.7" x2="526.5" y2="58.9"/><line class="cls-2" x1="526.5" y1="62.5" x2="526.5" y2="62.5"/><line class="cls-3" x1="519.83" y1="62.5" x2="469.83" y2="62.5"/><line class="cls-2" x1="466.5" y1="62.5" x2="466.5" y2="62.5"/></g><g class="cls-1"><line class="cls-2" x1="677.5" y1="66.5" x2="677.5" y2="66.5"/><line class="cls-15" x1="670.44" y1="66.5" x2="568.03" y2="66.5"/><line class="cls-2" x1="564.5" y1="66.5" x2="564.5" y2="66.5"/><line class="cls-4" x1="564.5" y1="74.5" x2="564.5" y2="86.5"/><line class="cls-2" x1="564.5" y1="90.5" x2="564.5" y2="90.5"/><line class="cls-16" x1="557.5" y1="90.5" x2="470" y2="90.5"/><line class="cls-2" x1="466.5" y1="90.5" x2="466.5" y2="90.5"/></g><g class="cls-1"><line class="cls-2" x1="647.5" y1="142.5" x2="647.5" y2="142.5"/><line class="cls-17" x1="639.83" y1="142.5" x2="628.33" y2="142.5"/><line class="cls-2" x1="624.5" y1="142.5" x2="624.5" y2="142.5"/><line class="cls-16" x1="624.5" y1="135.5" x2="624.5" y2="118"/><line class="cls-2" x1="624.5" y1="114.5" x2="624.5" y2="114.5"/><line class="cls-18" x1="617.63" y1="114.5" x2="469.93" y2="114.5"/><line class="cls-2" x1="466.5" y1="114.5" x2="466.5" y2="114.5"/></g><g class="cls-1"><line class="cls-2" x1="527.5" y1="159.5" x2="527.5" y2="159.5"/><line class="cls-19" x1="521.5" y1="159.5" x2="512.5" y2="159.5"/><line class="cls-2" x1="509.5" y1="159.5" x2="509.5" y2="159.5"/><line class="cls-4" x1="509.5" y1="151.5" x2="509.5" y2="147.5"/><line class="cls-2" x1="509.5" y1="143.5" x2="509.5" y2="143.5"/><line class="cls-6" x1="502.17" y1="143.5" x2="469.17" y2="143.5"/><line class="cls-2" x1="465.5" y1="143.5" x2="465.5" y2="143.5"/></g><rect class="cls-20" x="295.45" y="11.39" width="155.89" height="135.68" rx="3.95" ry="3.95"/><rect class="cls-20" x="350.47" y="11.39" width="100.87" height="135.68" rx="3.95" ry="3.95"/><path class="cls-21" d="M451.33,15.05a3.77,3.77,0,0,0-4-3.56h-93a3.77,3.77,0,0,0-4,3.56V54.17c0,.18,0,.35,0,.52,0,12.65,22.59,22.9,50.45,22.9s50.45-10.25,50.45-22.9a10.61,10.61,0,0,0-.06-1.1l.07-.17Z"/><rect class="cls-22" x="368.05" y="22.5" width="65.65" height="39.2" rx="3.01" ry="3.01"/><rect class="cls-21" x="375.32" y="82.83" width="11.57" height="11.57" rx="3.2" ry="3.2"/><rect class="cls-21" x="394.63" y="82.83" width="11.57" height="11.57" rx="3.2" ry="3.2"/><rect class="cls-21" x="413.95" y="82.83" width="11.57" height="11.57" rx="3.2" ry="3.2"/><rect class="cls-21" x="375.32" y="102.15" width="11.57" height="11.57" rx="3.2" ry="3.2"/><rect class="cls-21" x="394.63" y="102.15" width="11.57" height="11.57" rx="3.2" ry="3.2"/><rect class="cls-21" x="413.95" y="102.15" width="11.57" height="11.57" rx="3.2" ry="3.2"/><rect class="cls-21" x="375.32" y="121.46" width="11.57" height="11.57" rx="3.2" ry="3.2"/><rect class="cls-21" x="394.63" y="121.46" width="11.57" height="11.57" rx="3.2" ry="3.2"/><rect class="cls-21" x="413.95" y="121.46" width="11.57" height="11.57" rx="3.2" ry="3.2"/><path class="cls-23" d="M308.65,139.15a17.47,17.47,0,0,0,0,7.76h34.5a17.47,17.47,0,0,0,0-7.76c-1.5-14.09-5.85-64.33,2.46-107.9a21.52,21.52,0,0,0-1.27-19.87H307.45a21.51,21.51,0,0,0-1.27,19.87C314.5,74.83,310.14,125.06,308.65,139.15Z"/><path class="cls-23" d="M451.32,14.89a3.38,3.38,0,0,0-1-2.25,3.94,3.94,0,0,0-2.88-1.25h-5.57V147.06h5.57a4,4,0,0,0,4-4V15.34A4,4,0,0,0,451.32,14.89Z"/><path class="cls-21" d="M342,31.25a21.55,21.55,0,1,0-39.41,0c8.32,43.57,4,93.81,2.46,107.9a17.68,17.68,0,1,0,34.48,0C338.06,125.06,333.7,74.83,342,31.25Z"/><line class="cls-24" x1="396.36" y1="52.23" x2="394" y2="55"/><line class="cls-24" x1="417" y1="28" x2="399.41" y2="48.65"/><line class="cls-24" x1="405" y1="30" x2="392" y2="45"/><circle class="cls-25" cx="616.5" cy="26.5" r="24.5"/><circle class="cls-25" cx="179.5" cy="26.5" r="24.5"/><circle class="cls-25" cx="64.5" cy="46.5" r="24.5"/><circle class="cls-25" cx="25.5" cy="119.5" r="24.5"/><circle class="cls-25" cx="125.5" cy="160.5" r="24.5"/><circle class="cls-25" cx="706.5" cy="65.5" r="24.5"/><circle class="cls-25" cx="676.5" cy="143.5" r="24.5"/><circle class="cls-25" cx="556.5" cy="159.5" r="24.5"/><path class="cls-26" d="M616.5,10.59A15.91,15.91,0,1,0,632.41,26.5,15.93,15.93,0,0,0,616.5,10.59ZM631,22.91a1.35,1.35,0,0,0-1,.64,1.44,1.44,0,0,0,.12,1.51,1.84,1.84,0,0,1,.22.47l-.14.11a1.75,1.75,0,0,0-.79,1.14l-.28.18a2.71,2.71,0,0,0-1.6,3c.3,1.56,0,2.59-2.25,5.64-.69.93-1.33,1.28-1.69,1.29a.52.52,0,0,1-.42-.19,4.18,4.18,0,0,1-.39-3c.67-4.86-1.51-6.18-1.76-6.31a.93.93,0,0,0-.84,0,4.79,4.79,0,0,1-1.86.43c-1.28,0-2.1-.75-2.5-2.3-.54-2.1.48-2.86,1.48-3.6.6-.45,1.22-.91,1.29-1.68a1.78,1.78,0,0,0-.58-1.39,1,1,0,0,1-.36-.76,1.44,1.44,0,0,1,.56-.81c1.12-.11,2.49-.43,3-1.25a1.39,1.39,0,0,0,.08-1.28v0l.21-.06.28-.09a3.16,3.16,0,0,0,1.7-1.26A15,15,0,0,1,631,22.91ZM616.5,11.6c.44,0,.88,0,1.31.06a1.39,1.39,0,0,1,0,.15c0,.13-.24.26-.51.34l-.32.07a2.47,2.47,0,0,0-1.64.94,3.09,3.09,0,0,1-.4.39,1.26,1.26,0,0,1-1.2.15,2.07,2.07,0,0,1-.23-1.51l-.62-.15A14.87,14.87,0,0,1,616.5,11.6ZM610,13.09a2.55,2.55,0,0,0,.56,2.36,4.38,4.38,0,0,0,.68.56l.34.26a1.69,1.69,0,0,1,.7,1.38,6.45,6.45,0,0,1-1.13,1.57,6.69,6.69,0,0,0-.73.94c-.06.11-.13.25-.64,0a1.91,1.91,0,0,1-.42-.29,1.7,1.7,0,0,0-1.11-.48A1.87,1.87,0,0,0,607,20l-.13.11a6.81,6.81,0,0,1-2.09,1l-.73.28a5.79,5.79,0,0,0-1.87,1.14A15,15,0,0,1,610,13.09ZM601.6,26.5c0-.09,0-.18,0-.26a1.62,1.62,0,0,0,1.41.62c.42,0,1,0,2.23,1.08a15.15,15.15,0,0,0,3.69,2.37c1,.49,1.27.65,1.38,1a2,2,0,0,1-.21,1.48,3.5,3.5,0,0,0-.36,1.89l0,0a3.38,3.38,0,0,0-1.83,2.94c0,.28-.07.58-.1.89A14.89,14.89,0,0,1,601.6,26.5Zm14.9,14.9a14.81,14.81,0,0,1-7.75-2.18c0-.49.07-1,.13-1.4.21-1.57.83-1.92,1.33-2.2s.66-.37.56-1a2.48,2.48,0,0,1,.28-1.45,3,3,0,0,0,.25-2.14c-.25-.87-.91-1.19-1.92-1.67a14.24,14.24,0,0,1-3.47-2.22A4.05,4.05,0,0,0,603,25.85c-.49,0-.7,0-1-1.19a4.87,4.87,0,0,1-.17-.84l0-.11.48.22a3.56,3.56,0,0,1,2-1.59l.7-.26a7.68,7.68,0,0,0,2.4-1.22l.14-.12a1.29,1.29,0,0,1,.58-.36.71.71,0,0,1,.51.24,2.87,2.87,0,0,0,.63.43c1.24.61,1.79-.09,2-.43a7.4,7.4,0,0,1,.61-.76,5,5,0,0,0,1.37-2.12,2.63,2.63,0,0,0-1.06-2.27l-.4-.3a3.58,3.58,0,0,1-.53-.43,1.54,1.54,0,0,1,0-2l-.16-.14q.65-.25,1.34-.45a3.09,3.09,0,0,0,.49,2.22l.07.1.11.06a2.22,2.22,0,0,0,1,.26,2.25,2.25,0,0,0,1.34-.43,3.91,3.91,0,0,0,.54-.51,2.26,2.26,0,0,1,.5-.45,2.28,2.28,0,0,1,.61-.19l.37-.09a1.61,1.61,0,0,0,1.21-1,2.55,2.55,0,0,0,.07-.29v0a14.77,14.77,0,0,1,3.67,1.08,2.14,2.14,0,0,1-1.08.74l-.28.09c-.55.17-.77.24-.91.41l-.7.83h.7l.08.2a.38.38,0,0,1,0,.36,3.63,3.63,0,0,1-2.37.78h-.14l-.11.08A2.54,2.54,0,0,0,616.59,18a1.93,1.93,0,0,0,.64,1.58c.32.34.3.54.3.6,0,.3-.35.56-.88,1a3.92,3.92,0,0,0-1.85,4.66c.65,2.53,2.25,3.06,3.48,3.06a5.83,5.83,0,0,0,2.26-.51c.26.18,1.74,1.37,1.2,5.26-.24,1.73,0,3.08.63,3.82a1.5,1.5,0,0,0,1.16.54h.07a3.58,3.58,0,0,0,2.46-1.7c2.29-3.07,2.81-4.46,2.43-6.43-.2-1.06.39-1.51,1.13-2,.42-.25.76-.45.76-.82s.15-.37.41-.56c.58-.44.79-.87.19-1.9-.08-.13-.19-.37-.11-.5a.46.46,0,0,1,.34-.15A14.88,14.88,0,0,1,616.5,41.4Z"/><path class="cls-27" d="M719.08,54.43a1.77,1.77,0,0,0-.43-.67h0a1.83,1.83,0,0,0-.7-.41,2.43,2.43,0,0,0-2.68.45l-5,4.89-15-2.6-1.56,2.15,11.81,5.73-3.81,3.74-4.93-.09-1.14,1.1L699.81,72l3.47,4,1.13-1.1-.11-4.77,3.85-3.7,6,11.39,2.22-1.52-2.76-14.45,5-4.89A2.23,2.23,0,0,0,719.08,54.43Z"/><polygon class="cls-28" points="567 169 547 169 547 157 557 151 567 157 567 169"/><line class="cls-27" x1="569" y1="169" x2="545" y2="169"/><polyline class="cls-28" points="543 155.33 557 146.67 571 155.33"/><path class="cls-27" d="M556.06,161h1.87a1.06,1.06,0,0,1,1.06,1.06V169a0,0,0,0,1,0,0h-4a0,0,0,0,1,0,0v-6.94A1.06,1.06,0,0,1,556.06,161Z"/><path class="cls-29" d="M670.08,131h13.83a3.08,3.08,0,0,1,3.08,3.08V153a1,1,0,0,1-1,1H668a1,1,0,0,1-1-1V134.08A3.08,3.08,0,0,1,670.08,131Z"/><line class="cls-29" x1="669" y1="146" x2="685" y2="146"/><line class="cls-27" x1="670" y1="150" x2="673" y2="150"/><line class="cls-27" x1="681" y1="150" x2="684" y2="150"/><path class="cls-27" d="M690,142v-2.46a1.54,1.54,0,0,0-1.54-1.54H687"/><path class="cls-27" d="M664,142v-2.46a1.54,1.54,0,0,1,1.54-1.54H667"/><path class="cls-30" d="M671,155v1h-1v-1h1m0-2h-1a2,2,0,0,0-2,2v1a2,2,0,0,0,2,2h1a2,2,0,0,0,2-2v-1a2,2,0,0,0-2-2Z"/><path class="cls-30" d="M684,155v1h-1v-1h1m0-2h-1a2,2,0,0,0-2,2v1a2,2,0,0,0,2,2h1a2,2,0,0,0,2-2v-1a2,2,0,0,0-2-2Z"/><line class="cls-31" x1="683" y1="135" x2="676" y2="143"/><line class="cls-31" x1="677" y1="135" x2="672" y2="141"/><path class="cls-27" d="M64.5,31a9.21,9.21,0,0,0-9.41,9.16c0,6.75,6.28,13.06,9.41,16.81,3.13-3.75,9.41-10.06,9.41-16.81C73.91,34.38,68.89,31,64.5,31Zm-.1,14.25a4.47,4.47,0,1,1,4.32-4.47A4.39,4.39,0,0,1,64.4,45.25Z"/><path class="cls-31" d="M59,56.27c-1.83.42-3,1-3,1.73,0,1.25,3.81,2.27,8.5,2.27S73,59.25,73,58c0-.69-1.17-1.31-3-1.73"/><path class="cls-32" d="M35.76,127.62h-2v0H33v0H30.77v0H19.33v0H17.58v0H15.52v-.07a6.65,6.65,0,0,1,1-13.22l.55,0a8.47,8.47,0,0,1,14.57-1.59,3.58,3.58,0,0,1,1-.14,3.64,3.64,0,0,1,3.56,2.93,6.1,6.1,0,0,1-.41,12Z"/><path class="cls-30" d="M131.11,149a1.37,1.37,0,0,1,1.08.48l.82,1L122,160l11,9.49-.82,1a1.37,1.37,0,0,1-1.08.48,1.62,1.62,0,0,1-.91-.28l-10.85-8.52-2,1.66A4.06,4.06,0,0,1,116,168a3.88,3.88,0,0,1-2.46.88l-.42,0a3.89,3.89,0,0,1-2.64-1.44,3.94,3.94,0,0,1,.58-5.54,3.89,3.89,0,0,1,2.46-.88l.42,0a3.92,3.92,0,0,1,.42.09l1.76-1.18-1.76-1.18a3.9,3.9,0,0,1-.42.09l-.42,0a3.93,3.93,0,0,1-3.92-3.94,4,4,0,0,1,.87-2.48,3.9,3.9,0,0,1,2.64-1.44l.42,0a3.88,3.88,0,0,1,2.46.88,4.06,4.06,0,0,1,1.25,4.24l2,1.66,10.85-8.52a1.61,1.61,0,0,1,.91-.28m-17.53,7.76h.19a1.79,1.79,0,0,0,1.6-1.78,1.78,1.78,0,0,0-.66-1.39,1.76,1.76,0,0,0-1.12-.4h-.19a1.76,1.76,0,0,0-1.2.65,1.83,1.83,0,0,0,.26,2.52,1.78,1.78,0,0,0,1.12.4m5.71,4.29a1.07,1.07,0,1,0-1.07-1.07,1.07,1.07,0,0,0,1.07,1.07m-5.7,5.73a1.76,1.76,0,0,0,1.12-.4,1.79,1.79,0,0,0-.93-3.17h-.18a1.78,1.78,0,0,0-1.13.4,1.83,1.83,0,0,0-.26,2.52,1.76,1.76,0,0,0,1.2.65h.19m17.52-19.53h0a3.34,3.34,0,0,0-1.91.59l0,0,0,0-9.75,7.66-.17-.14a5.76,5.76,0,0,0-2-4.88,5.67,5.67,0,0,0-3.57-1.27,5.74,5.74,0,0,0-.6,0,5.64,5.64,0,0,0-3.82,2.08A5.69,5.69,0,0,0,110.9,160a5.69,5.69,0,0,0-1.73,8.59,5.63,5.63,0,0,0,3.82,2.08,5.76,5.76,0,0,0,.6,0,5.67,5.67,0,0,0,3.57-1.27,5.75,5.75,0,0,0,2-4.88l.17-.14,9.75,7.66,0,0,0,0a3.35,3.35,0,0,0,1.91.59,3.1,3.1,0,0,0,2.44-1.13l.81-1,1.07-1.32-1.29-1.11L124.69,160l9.45-8.17,1.28-1.11-1.07-1.32-.81-1a3.1,3.1,0,0,0-2.44-1.13ZM113.58,155h0s0-.05,0-.07l0,0,0,0Zm0,10h0a.08.08,0,0,1,0-.09l0,0,0,0Z"/><path class="cls-33" d="M131.3,163.67S144,158,143.48,152.28"/><path class="cls-33" d="M120.19,178.11s-.26-7,5.88-10.64"/><path class="cls-30" d="M191,15.18a.85.85,0,0,0-.62-.27.86.86,0,0,0-.62.26l-.14.14a.92.92,0,0,0,0,1.26,14.45,14.45,0,0,1,0,19.85.91.91,0,0,0,0,1.26l.14.14a.88.88,0,0,0,1.23,0,16.48,16.48,0,0,0,0-22.63Z"/><path class="cls-30" d="M185.76,20.36a.86.86,0,0,0-.62.26l-.07.07a.92.92,0,0,0,0,1.26,6.63,6.63,0,0,1,0,9.1.92.92,0,0,0,0,1.26l.07.07a.88.88,0,0,0,1.24,0,8.55,8.55,0,0,0,0-11.74A.85.85,0,0,0,185.76,20.36Z"/><path class="cls-30" d="M169.4,15.31l-.14-.14a.85.85,0,0,0-.61-.26.84.84,0,0,0-.62.27,16.48,16.48,0,0,0,0,22.63.88.88,0,0,0,1.23,0l.14-.14a.91.91,0,0,0,0-1.26,14.45,14.45,0,0,1,0-19.85A.91.91,0,0,0,169.4,15.31Z"/><path class="cls-30" d="M173.93,20.69l-.07-.07a.87.87,0,0,0-.61-.26.85.85,0,0,0-.62.27,8.55,8.55,0,0,0,0,11.74.88.88,0,0,0,1.23,0l.07-.07a.91.91,0,0,0,0-1.26,6.63,6.63,0,0,1,0-9.1A.92.92,0,0,0,173.93,20.69Z"/><circle class="cls-30" cx="179.5" cy="26.5" r="2.35"/></svg>