<svg id="Layer_3" data-name="Layer 3" xmlns="http://www.w3.org/2000/svg" xmlns:xlink="http://www.w3.org/1999/xlink" viewBox="0 0 728 171"><defs><style>.cls-1,.cls-10,.cls-11,.cls-12,.cls-13,.cls-14,.cls-15,.cls-16,.cls-17,.cls-18,.cls-24,.cls-28,.cls-3,.cls-30,.cls-31,.cls-32,.cls-33,.cls-4,.cls-5,.cls-6,.cls-7,.cls-8,.cls-9{fill:none;}.cls-2{opacity:0.3;}.cls-10,.cls-11,.cls-12,.cls-13,.cls-14,.cls-15,.cls-16,.cls-17,.cls-18,.cls-19,.cls-23,.cls-27,.cls-28,.cls-3,.cls-30,.cls-31,.cls-32,.cls-33,.cls-4,.cls-5,.cls-6,.cls-7,.cls-8,.cls-9{stroke:#0073ae;}.cls-10,.cls-11,.cls-12,.cls-13,.cls-14,.cls-15,.cls-16,.cls-17,.cls-18,.cls-23,.cls-27,.cls-28,.cls-3,.cls-31,.cls-4,.cls-5,.cls-6,.cls-7,.cls-8,.cls-9{stroke-linecap:round;}.cls-10,.cls-11,.cls-12,.cls-13,.cls-14,.cls-15,.cls-16,.cls-17,.cls-18,.cls-23,.cls-27,.cls-28,.cls-3,.cls-30,.cls-31,.cls-4,.cls-5,.cls-6,.cls-7,.cls-8,.cls-9{stroke-linejoin:round;}.cls-10,.cls-11,.cls-12,.cls-13,.cls-14,.cls-15,.cls-16,.cls-17,.cls-3,.cls-4,.cls-5,.cls-6,.cls-7,.cls-8,.cls-9{stroke-width:3px;}.cls-4{stroke-dasharray:0 8;}.cls-5{stroke-dasharray:0 6.75;}.cls-6{stroke-dasharray:0 7;}.cls-7{stroke-dasharray:0 8.5;}.cls-8{stroke-dasharray:0 6.77;}.cls-9{stroke-dasharray:0 6.67;}.cls-10{stroke-dasharray:0 6.25;}.cls-11{stroke-dasharray:0 7.15;}.cls-12{stroke-dasharray:0 7.2;}.cls-13{stroke-dasharray:0 6.83;}.cls-14{stroke-dasharray:0 7.6;}.cls-15{stroke-dasharray:0 7.5;}.cls-16{stroke-dasharray:0 7.09;}.cls-17{stroke-dasharray:0 6.8;}.cls-18,.cls-19,.cls-23,.cls-24,.cls-27,.cls-28,.cls-30,.cls-32,.cls-33{stroke-width:2px;}.cls-18{opacity:0.2;}.cls-19,.cls-25,.cls-27{fill:#fff;}.cls-19,.cls-24,.cls-32,.cls-33{stroke-miterlimit:10;}.cls-20{fill:#ffdbb2;}.cls-21{fill:#f80;opacity:0.5;}.cls-22{fill:#0073ae;}.cls-23,.cls-29{fill:#b2d5e6;}.cls-24{stroke:#ffdbb2;}.cls-26{clip-path:url(#clip-path);}.cls-31{stroke-width:1.75px;}.cls-32{fill-rule:evenodd;}</style><clipPath id="clip-path"><circle class="cls-1" cx="364" cy="85" r="18"/></clipPath></defs><title>Artboard 1</title><g class="cls-2"><line class="cls-3" x1="223.5" y1="34.5" x2="223.5" y2="34.5"/><line class="cls-3" x1="229.5" y1="34.5" x2="229.5" y2="34.5"/><line class="cls-4" x1="229.5" y1="42.5" x2="229.5" y2="46.5"/><line class="cls-3" x1="229.5" y1="50.5" x2="229.5" y2="50.5"/><line class="cls-5" x1="236.25" y1="50.5" x2="253.13" y2="50.5"/><line class="cls-3" x1="256.5" y1="50.5" x2="256.5" y2="50.5"/></g><g class="cls-2"><line class="cls-3" x1="54.5" y1="61.5" x2="54.5" y2="61.5"/><line class="cls-6" x1="61.5" y1="61.5" x2="163" y2="61.5"/><line class="cls-3" x1="166.5" y1="61.5" x2="166.5" y2="61.5"/><line class="cls-7" x1="166.5" y1="70" x2="166.5" y2="74.25"/><line class="cls-3" x1="166.5" y1="78.5" x2="166.5" y2="78.5"/><line class="cls-8" x1="173.27" y1="78.5" x2="251.12" y2="78.5"/><line class="cls-3" x1="254.5" y1="78.5" x2="254.5" y2="78.5"/></g><g class="cls-2"><line class="cls-3" x1="91.5" y1="115.5" x2="91.5" y2="115.5"/><line class="cls-9" x1="98.17" y1="115.5" x2="108.17" y2="115.5"/><line class="cls-3" x1="111.5" y1="115.5" x2="111.5" y2="115.5"/><line class="cls-10" x1="111.5" y1="109.25" x2="111.5" y2="93.63"/><line class="cls-3" x1="111.5" y1="90.5" x2="111.5" y2="90.5"/><line class="cls-11" x1="118.65" y1="90.5" x2="250.92" y2="90.5"/><line class="cls-3" x1="254.5" y1="90.5" x2="254.5" y2="90.5"/></g><g class="cls-2"><line class="cls-3" x1="173.5" y1="144.5" x2="173.5" y2="144.5"/><line class="cls-9" x1="180.17" y1="144.5" x2="210.17" y2="144.5"/><line class="cls-3" x1="213.5" y1="144.5" x2="213.5" y2="144.5"/><line class="cls-12" x1="213.5" y1="137.3" x2="213.5" y2="112.1"/><line class="cls-3" x1="213.5" y1="108.5" x2="213.5" y2="108.5"/><line class="cls-13" x1="220.33" y1="108.5" x2="251.08" y2="108.5"/><line class="cls-3" x1="254.5" y1="108.5" x2="254.5" y2="108.5"/></g><g class="cls-2"><line class="cls-3" x1="550.5" y1="24.5" x2="550.5" y2="24.5"/><line class="cls-14" x1="542.9" y1="24.5" x2="516.3" y2="24.5"/><line class="cls-3" x1="512.5" y1="24.5" x2="512.5" y2="24.5"/><line class="cls-12" x1="512.5" y1="31.7" x2="512.5" y2="56.9"/><line class="cls-3" x1="512.5" y1="60.5" x2="512.5" y2="60.5"/><line class="cls-13" x1="505.67" y1="60.5" x2="474.92" y2="60.5"/><line class="cls-3" x1="471.5" y1="60.5" x2="471.5" y2="60.5"/></g><g class="cls-2"><line class="cls-3" x1="626.5" y1="52.5" x2="626.5" y2="52.5"/><line class="cls-15" x1="619" y1="52.5" x2="615.25" y2="52.5"/><line class="cls-3" x1="611.5" y1="52.5" x2="611.5" y2="52.5"/><line class="cls-6" x1="611.5" y1="59.5" x2="611.5" y2="77"/><line class="cls-3" x1="611.5" y1="80.5" x2="611.5" y2="80.5"/><line class="cls-6" x1="604.5" y1="80.5" x2="475" y2="80.5"/><line class="cls-3" x1="471.5" y1="80.5" x2="471.5" y2="80.5"/></g><g class="cls-2"><line class="cls-3" x1="672.5" y1="106.5" x2="672.5" y2="106.5"/><line class="cls-13" x1="665.67" y1="106.5" x2="552.92" y2="106.5"/><line class="cls-3" x1="549.5" y1="106.5" x2="549.5" y2="106.5"/><line class="cls-15" x1="549.5" y1="99" x2="549.5" y2="95.25"/><line class="cls-3" x1="549.5" y1="91.5" x2="549.5" y2="91.5"/><line class="cls-16" x1="542.41" y1="91.5" x2="475.05" y2="91.5"/><line class="cls-3" x1="471.5" y1="91.5" x2="471.5" y2="91.5"/></g><g class="cls-2"><line class="cls-3" x1="554.5" y1="145.5" x2="554.5" y2="145.5"/><line class="cls-6" x1="547.5" y1="145.5" x2="509" y2="145.5"/><line class="cls-3" x1="505.5" y1="145.5" x2="505.5" y2="145.5"/><line class="cls-14" x1="505.5" y1="137.9" x2="505.5" y2="111.3"/><line class="cls-3" x1="505.5" y1="107.5" x2="505.5" y2="107.5"/><line class="cls-17" x1="498.7" y1="107.5" x2="474.9" y2="107.5"/><line class="cls-3" x1="471.5" y1="107.5" x2="471.5" y2="107.5"/></g><circle class="cls-18" cx="580.5" cy="25.5" r="24.5"/><circle class="cls-18" cx="193.5" cy="34.5" r="24.5"/><circle class="cls-18" cx="25.5" cy="61.5" r="24.5"/><circle class="cls-18" cx="63.5" cy="115.5" r="24.5"/><circle class="cls-18" cx="142.5" cy="145.5" r="24.5"/><circle class="cls-18" cx="656.5" cy="52.5" r="24.5"/><circle class="cls-18" cx="702.5" cy="106.5" r="24.5"/><circle class="cls-18" cx="583.5" cy="145.5" r="24.5"/><path class="cls-19" d="M457,161.52a6.07,6.07,0,0,1-6.06,6.05H278.06a6.07,6.07,0,0,1-6.06-6.05V32.05A6.07,6.07,0,0,1,278.06,26H450.94A6.07,6.07,0,0,1,457,32.05V161.52"/><polyline class="cls-20" points="450 149 279 149 279 33.19 450 33.19 450 149"/><polyline class="cls-21" points="450 36 279 36 279 33.19 450 33.19 450 36"/><path class="cls-21" d="M429,149H300v-5.83a1.17,1.17,0,0,1,1.17-1.17H427.83a1.17,1.17,0,0,1,1.17,1.17V149"/><circle class="cls-22" cx="364.5" cy="29.76" r="1.54"/><path class="cls-23" d="M388.91,156a8,8,0,0,1-7.41,5h-35a8,8,0,0,1-7.41-5H247v3.72a8.28,8.28,0,0,0,8.28,8.28H472.72a8.28,8.28,0,0,0,8.28-8.28V156Z"/><line class="cls-24" x1="420" y1="140" x2="420" y2="149"/><rect class="cls-25" x="336" y="52" width="56" height="77" rx="1.58" ry="1.58"/><circle class="cls-20" cx="364" cy="85" r="18"/><g class="cls-26"><path class="cls-27" d="M377.59,98.41l-1.32-4.67a2.26,2.26,0,0,0-1.09-1.27l-7.49-3.29h0V87.8a9.16,9.16,0,0,0,1.84-5.71V80.27A5.69,5.69,0,0,0,364,74.43h0a5.69,5.69,0,0,0-5.52,5.84v1.82a9.16,9.16,0,0,0,1.84,5.71v1.37h0l-7.49,3.29a2.26,2.26,0,0,0-1.09,1.27l-1.32,4.67a.66.66,0,0,0,.67.89L364,105.92h0l12.92-6.63A.66.66,0,0,0,377.59,98.41Z"/></g><circle class="cls-28" cx="364" cy="85" r="18"/><rect class="cls-20" x="343" y="117" width="19" height="7" rx="3.5" ry="3.5"/><rect class="cls-29" x="366" y="117" width="19" height="7" rx="3.5" ry="3.5"/><path class="cls-28" d="M690.2,113.13l11.06-9.64a8.54,8.54,0,0,1,12.5-9.42l-6.05,5.47,3.74,4.28,6-5.51a8.51,8.51,0,0,1-11,11.06L695.45,119a4,4,0,0,1-5.59-.34h0a3.94,3.94,0,0,1,.34-5.55Z"/><path class="cls-28" d="M571,144v-1a12,12,0,0,1,12-12h1a12,12,0,0,1,12,12v1"/><rect class="cls-28" x="593" y="144" width="6" height="10" rx="3" ry="3"/><rect class="cls-28" x="568" y="144" width="6" height="10" rx="3" ry="3"/><path class="cls-28" d="M596,154s0,7-13,7"/><path class="cls-22" d="M583.5,157a1.5,1.5,0,1,1-1.5,1.5,1.5,1.5,0,0,1,1.5-1.5m0-1.75a3.25,3.25,0,1,0,3.25,3.25,3.25,3.25,0,0,0-3.25-3.25Z"/><path class="cls-28" d="M573,137l.78.74a1.46,1.46,0,0,0,2.14-.18A9.27,9.27,0,0,1,583.1,134h.81a9.25,9.25,0,0,1,7.08,3.45,1.43,1.43,0,0,0,2.21-.06l.81-1"/><path class="cls-28" d="M656.93,39.5a9.46,9.46,0,0,0-9.59,9.33c0,6.3,4.58,6.87,5.23,10.38A1.76,1.76,0,0,0,654.32,61h5.23a1.76,1.76,0,0,0,1.74-1.79c.64-3.59,5.23-4,5.23-10.38A9.46,9.46,0,0,0,656.93,39.5Z"/><line class="cls-28" x1="654" y1="64" x2="660" y2="64"/><line class="cls-30" x1="657" y1="52" x2="657" y2="61"/><line class="cls-28" x1="654" y1="67" x2="660" y2="67"/><line class="cls-28" x1="656" y1="69" x2="658" y2="69"/><path class="cls-22" d="M657,47a2,2,0,1,1-2,2,2,2,0,0,1,2-2m0-2a4,4,0,1,0,4,4,4,4,0,0,0-4-4Z"/><path class="cls-28" d="M581,11a15,15,0,1,1-13.07,7.63"/><polyline class="cls-30" points="564.28 17.81 569.3 16.72 570.39 21.74"/><path class="cls-22" d="M580.5,25a1.5,1.5,0,1,1-1.5,1.5,1.5,1.5,0,0,1,1.5-1.5m0-1.75a3.25,3.25,0,1,0,3.25,3.25,3.25,3.25,0,0,0-3.25-3.25Z"/><line class="cls-31" x1="582" y1="25" x2="588" y2="19"/><line class="cls-31" x1="582" y1="28" x2="586" y2="32"/><path class="cls-32" d="M65.9,121.12a1.5,1.5,0,0,0,1.83-.17c.53-.54,2.13-2.46,2.13-2.46a1,1,0,0,1,1.29-.11c.77.49,2.18,1.51,5.14,3.38a1,1,0,0,1,.26,1,15.31,15.31,0,0,1-5.31,5c-.73.46-2.42,0-2.42,0s-13.6-3.07-18.28-17.07a3.45,3.45,0,0,1,0-1.75s.41-2.5,4.15-5.71a1,1,0,0,1,1.25,0,51.66,51.66,0,0,1,4.11,5.1.91.91,0,0,1-.14,1.07,12,12,0,0,0-2.53,2.86,1.38,1.38,0,0,0,.19,1.11A24.16,24.16,0,0,0,65.9,121.12Z"/><rect class="cls-33" x="128" y="131" width="9" height="29" rx="2.75" ry="2.75"/><path class="cls-33" d="M137,133h15.29a3.71,3.71,0,0,1,3.71,3.71v17.58a3.71,3.71,0,0,1-3.71,3.71H137a0,0,0,0,1,0,0V133a0,0,0,0,1,0,0Z"/><rect class="cls-33" x="141" y="136" width="11" height="7" rx="1.19" ry="1.19"/><line class="cls-28" x1="141" y1="147" x2="142" y2="147"/><line class="cls-28" x1="146" y1="147" x2="147" y2="147"/><line class="cls-28" x1="151" y1="147" x2="152" y2="147"/><line class="cls-28" x1="141" y1="150" x2="142" y2="150"/><line class="cls-28" x1="146" y1="150" x2="147" y2="150"/><line class="cls-28" x1="151" y1="150" x2="152" y2="150"/><line class="cls-28" x1="141" y1="153" x2="142" y2="153"/><line class="cls-28" x1="146" y1="153" x2="147" y2="153"/><line class="cls-28" x1="151" y1="153" x2="152" y2="153"/><rect class="cls-28" x="17" y="47" width="17" height="29" rx="3.33" ry="3.33"/><line class="cls-28" x1="24" y1="51" x2="27" y2="51"/><line class="cls-28" x1="25" y1="72" x2="26" y2="72"/><line class="cls-28" x1="18" y1="68" x2="33" y2="68"/><rect class="cls-28" x="178" y="22" width="31" height="24" rx="2.64" ry="2.64"/><line class="cls-28" x1="189.5" y1="50" x2="197.5" y2="50"/><line class="cls-28" x1="179" y1="41" x2="208" y2="41"/></svg>