<svg id="Layer_3" data-name="Layer 3" xmlns="http://www.w3.org/2000/svg" xmlns:xlink="http://www.w3.org/1999/xlink" viewBox="0 0 251 129.41"><defs><style>.cls-1,.cls-13,.cls-2,.cls-3,.cls-9{fill:none;}.cls-12,.cls-13,.cls-2,.cls-3,.cls-4,.cls-8{stroke:#0073ae;}.cls-12,.cls-13,.cls-2,.cls-3,.cls-8{stroke-linecap:round;stroke-linejoin:round;}.cls-12,.cls-13,.cls-2,.cls-4,.cls-8,.cls-9{stroke-width:2px;}.cls-2{opacity:0.2;}.cls-3{stroke-width:3px;stroke-dasharray:0 7;opacity:0.3;}.cls-10,.cls-12,.cls-4{fill:#fff;}.cls-4,.cls-9{stroke-miterlimit:10;}.cls-5{fill:#ffdbb2;}.cls-6{fill:#f80;opacity:0.5;}.cls-7{fill:#0073ae;}.cls-14,.cls-8{fill:#b2d5e6;}.cls-9{stroke:#ffdbb2;}.cls-11{clip-path:url(#clip-path);}</style><clipPath id="clip-path"><circle class="cls-1" cx="124.78" cy="83.4" r="9.76"/></clipPath></defs><title>Artboard 1</title><circle class="cls-2" cx="173" cy="19.37" r="18"/><circle class="cls-2" cx="75" cy="19" r="18"/><circle class="cls-2" cx="19" cy="89.41" r="18"/><circle class="cls-2" cx="232" cy="89.39" r="18"/><line class="cls-3" x1="82" y1="39.41" x2="87" y2="53.41"/><line class="cls-3" x1="165.5" y1="38.91" x2="158.5" y2="57.91"/><line class="cls-3" x1="209.5" y1="96.91" x2="179.5" y2="101.91"/><line class="cls-3" x1="40.5" y1="94.91" x2="73.5" y2="100.91"/><path class="cls-4" d="M175.21,124.89a3.29,3.29,0,0,1-3.29,3.28H78.18a3.29,3.29,0,0,1-3.29-3.28V54.69a3.29,3.29,0,0,1,3.29-3.28h93.74a3.29,3.29,0,0,1,3.29,3.28v70.2"/><polyline class="cls-5" points="171.41 118.11 78.69 118.11 78.69 55.31 171.41 55.31 171.41 118.11"/><polyline class="cls-6" points="171.41 56.83 78.69 56.83 78.69 55.31 171.41 55.31 171.41 56.83"/><path class="cls-6" d="M160,118.11h-70v-3.16a.63.63,0,0,1,.63-.63h68.69a.63.63,0,0,1,.63.63v3.16"/><circle class="cls-7" cx="125.05" cy="53.45" r="0.84"/><path class="cls-8" d="M138.28,121.9a4.35,4.35,0,0,1-4,2.71h-19a4.35,4.35,0,0,1-4-2.71H61.33v2a4.49,4.49,0,0,0,4.49,4.49h117.9a4.49,4.49,0,0,0,4.49-4.49v-2Z"/><line class="cls-9" x1="155.14" y1="113.23" x2="155.14" y2="118.11"/><rect class="cls-10" x="109.59" y="65.51" width="30.37" height="41.75" rx="1.58" ry="1.58"/><circle class="cls-5" cx="124.78" cy="83.4" r="9.76"/><g class="cls-11"><path class="cls-12" d="M132.14,90.67l-.71-2.53a1.23,1.23,0,0,0-.59-.69l-4.06-1.78h0v-.74a5,5,0,0,0,1-3.09v-1a3.08,3.08,0,0,0-3-3.16h0a3.08,3.08,0,0,0-3,3.16v1a5,5,0,0,0,1,3.1v.74h0l-4.06,1.78a1.23,1.23,0,0,0-.59.69l-.71,2.53a.36.36,0,0,0,.36.48l7,3.59h0l7-3.59A.36.36,0,0,0,132.14,90.67Z"/></g><circle class="cls-13" cx="124.78" cy="83.4" r="9.76"/><rect class="cls-5" x="113.39" y="100.75" width="10.3" height="3.8" rx="1.9" ry="1.9"/><rect class="cls-14" x="125.86" y="100.75" width="10.3" height="3.8" rx="1.9" ry="1.9"/><path class="cls-13" d="M222.18,94.29l8.17-7.12a6.31,6.31,0,0,1,9.23-7l-4.47,4,2.76,3.16,4.47-4.07a6.29,6.29,0,0,1-8.12,8.17l-8.18,7.12a3,3,0,0,1-4.13-.25h0a2.91,2.91,0,0,1,.25-4.1Z"/><path class="cls-7" d="M28.23,88.67a.74.74,0,0,1-.74-.74v-.74a8.14,8.14,0,0,0-8.13-8.13h-.74a8.14,8.14,0,0,0-8.13,8.13v.74a.74.74,0,0,1-1.48,0v-.74a9.62,9.62,0,0,1,9.6-9.6h.74a9.62,9.62,0,0,1,9.6,9.6v.74A.74.74,0,0,1,28.23,88.67Z"/><path class="cls-7" d="M28.23,96.06a3,3,0,0,1-3-3v-3a3,3,0,1,1,5.91,0v3A3,3,0,0,1,28.23,96.06Zm0-7.39a1.48,1.48,0,0,0-1.48,1.48v3a1.48,1.48,0,1,0,3,0v-3A1.48,1.48,0,0,0,28.23,88.67Z"/><path class="cls-7" d="M9.77,96.06a3,3,0,0,1-3-3v-3a3,3,0,1,1,5.91,0v3A3,3,0,0,1,9.77,96.06Zm0-7.39a1.48,1.48,0,0,0-1.48,1.48v3a1.48,1.48,0,1,0,3,0v-3A1.48,1.48,0,0,0,9.77,88.67Z"/><path class="cls-7" d="M18.63,101.23a.74.74,0,0,1,0-1.48c8.67,0,8.86-4.26,8.87-4.44a.74.74,0,0,1,.74-.73h0a.74.74,0,0,1,.73.73C29,95.56,28.86,101.23,18.63,101.23Z"/><path class="cls-7" d="M19,97.53a1.11,1.11,0,1,1-1.11,1.11A1.11,1.11,0,0,1,19,97.53m0-1.29a2.4,2.4,0,1,0,2.4,2.4,2.4,2.4,0,0,0-2.4-2.4Z"/><path class="cls-7" d="M12.54,84.33a1.77,1.77,0,0,1-1.22-.49l-.58-.55a.74.74,0,1,1,1-1.08l.58.55a.29.29,0,0,0,.23.08.38.38,0,0,0,.27-.14,7.61,7.61,0,0,1,5.87-2.9h.6a7.61,7.61,0,0,1,5.8,2.81.27.27,0,0,0,.22.1.34.34,0,0,0,.26-.13l.6-.75a.74.74,0,0,1,1.16.92l-.6.75a1.82,1.82,0,0,1-1.4.68h0A1.75,1.75,0,0,1,24,83.57a6.05,6.05,0,0,0-4.67-2.28h-.6A6.14,6.14,0,0,0,14,83.64a1.87,1.87,0,0,1-1.32.68Z"/><path class="cls-7" d="M174.93,25.09h-3.87a2,2,0,0,1-2-2,4.39,4.39,0,0,0-1.37-2.06,7.37,7.37,0,0,1-2.49-5.69,7.83,7.83,0,0,1,15.65,0A7.24,7.24,0,0,1,178.33,21,4.22,4.22,0,0,0,177,23.11,2,2,0,0,1,174.93,25.09ZM173,9.21a6.26,6.26,0,0,0-6.35,6.16A6,6,0,0,0,168.74,20a5.61,5.61,0,0,1,1.77,2.86.77.77,0,0,1,0,.13.57.57,0,0,0,.55.58h3.87a.57.57,0,0,0,.55-.58.7.7,0,0,1,0-.13A5.44,5.44,0,0,1,177.28,20a5.83,5.83,0,0,0,2.07-4.65A6.26,6.26,0,0,0,173,9.21Z"/><path class="cls-7" d="M175.27,27.31h-4.43a.74.74,0,1,1,0-1.48h4.43a.74.74,0,1,1,0,1.48Z"/><rect class="cls-7" x="172.31" y="17.7" width="1.48" height="6.65"/><path class="cls-7" d="M175.27,29.53h-4.43a.74.74,0,1,1,0-1.48h4.43a.74.74,0,1,1,0,1.48Z"/><path class="cls-7" d="M173.79,31h-1.48a.74.74,0,1,1,0-1.48h1.48a.74.74,0,1,1,0,1.48Z"/><path class="cls-7" d="M173,14a1.48,1.48,0,1,1-1.48,1.48A1.48,1.48,0,0,1,173,14m0-1.48a3,3,0,1,0,3,3,3,3,0,0,0-3-3Z"/><path class="cls-7" d="M75.34,30.82A11.82,11.82,0,0,1,65,13.2a.74.74,0,1,1,1.29.73,10.34,10.34,0,1,0,9-5.26.74.74,0,0,1,0-1.48,11.82,11.82,0,0,1,0,23.64Z"/><path class="cls-7" d="M66.79,16l-.65-3-3,.65-.31-1.44,3.71-.81a.74.74,0,0,1,.88.57l.81,3.71Z"/><path class="cls-7" d="M75,18.26a1.11,1.11,0,1,1-1.11,1.11A1.11,1.11,0,0,1,75,18.26M75,17a2.4,2.4,0,1,0,2.4,2.4A2.4,2.4,0,0,0,75,17Z"/><path class="cls-7" d="M76.08,18.91a.65.65,0,0,1-.46-1.1l4.43-4.43a.65.65,0,1,1,.91.91l-4.43,4.43A.65.65,0,0,1,76.08,18.91Z"/><path class="cls-7" d="M79,24.08a.65.65,0,0,1-.46-.19l-3-3a.65.65,0,0,1,.91-.91l3,3a.65.65,0,0,1-.46,1.1Z"/></svg>