<svg id="Layer_3" data-name="Layer 3" xmlns="http://www.w3.org/2000/svg" viewBox="0 0 251 156.6"><defs><style>.cls-1{fill:#b2d5e6;}.cls-1,.cls-10,.cls-11,.cls-12,.cls-2,.cls-6,.cls-7,.cls-9{stroke:#0073ae;}.cls-1,.cls-11,.cls-12,.cls-2,.cls-3{stroke-miterlimit:10;}.cls-1,.cls-11,.cls-2,.cls-3,.cls-5,.cls-6,.cls-9{stroke-width:2px;}.cls-2{fill:#fff;}.cls-3{fill:#ffdbb2;stroke:#f80;}.cls-4,.cls-8{fill:#0073ae;}.cls-4{opacity:0.5;}.cls-10,.cls-11,.cls-12,.cls-5,.cls-6,.cls-7,.cls-9{fill:none;}.cls-5{stroke:#fff;}.cls-10,.cls-5,.cls-6,.cls-7,.cls-9{stroke-linecap:round;stroke-linejoin:round;}.cls-6{opacity:0.2;}.cls-7{stroke-width:3px;stroke-dasharray:0 7;opacity:0.3;}.cls-10,.cls-12{stroke-width:1.75px;}.cls-11{fill-rule:evenodd;}</style></defs><title>Artboard 1</title><rect class="cls-1" x="76.31" y="62.74" width="96.94" height="84.37" rx="2.46" ry="2.46"/><rect class="cls-1" x="110.52" y="62.74" width="62.73" height="84.37" rx="2.46" ry="2.46"/><path class="cls-2" d="M173.24,65a2.35,2.35,0,0,0-2.46-2.22H113A2.35,2.35,0,0,0,110.51,65V89.34c0,.11,0,.22,0,.33,0,7.86,14,14.24,31.37,14.24s31.37-6.38,31.37-14.24a6.6,6.6,0,0,0,0-.68l0-.1Z"/><rect class="cls-3" x="121.45" y="69.65" width="40.82" height="24.38" rx="1.87" ry="1.87"/><rect class="cls-2" x="125.97" y="107.17" width="7.19" height="7.2" rx="1.99" ry="1.99"/><rect class="cls-2" x="137.98" y="107.17" width="7.19" height="7.2" rx="1.99" ry="1.99"/><rect class="cls-2" x="149.99" y="107.17" width="7.19" height="7.2" rx="1.99" ry="1.99"/><rect class="cls-2" x="125.97" y="119.18" width="7.19" height="7.2" rx="1.99" ry="1.99"/><rect class="cls-2" x="137.98" y="119.18" width="7.19" height="7.2" rx="1.99" ry="1.99"/><rect class="cls-2" x="149.99" y="119.18" width="7.19" height="7.2" rx="1.99" ry="1.99"/><rect class="cls-2" x="125.97" y="131.19" width="7.19" height="7.2" rx="1.99" ry="1.99"/><rect class="cls-2" x="137.98" y="131.19" width="7.19" height="7.2" rx="1.99" ry="1.99"/><rect class="cls-2" x="149.99" y="131.19" width="7.19" height="7.2" rx="1.99" ry="1.99"/><path class="cls-4" d="M84.51,142.19a10.86,10.86,0,0,0,0,4.83H106a10.86,10.86,0,0,0,0-4.83c-.93-8.76-3.64-40,1.53-67.1a13.38,13.38,0,0,0-.79-12.36H83.77A13.38,13.38,0,0,0,83,75.1C88.15,102.19,85.44,133.43,84.51,142.19Z"/><path class="cls-4" d="M173.23,64.92a2.1,2.1,0,0,0-.65-1.4,2.45,2.45,0,0,0-1.79-.77h-3.46v84.37h3.46a2.46,2.46,0,0,0,2.46-2.46V65.2A2.47,2.47,0,0,0,173.23,64.92Z"/><path class="cls-2" d="M105.26,75.1a13.4,13.4,0,1,0-24.51,0c5.17,27.1,2.46,58.33,1.53,67.1a11,11,0,1,0,21.44,0C102.8,133.43,100.09,102.19,105.26,75.1Z"/><line class="cls-5" x1="139.05" y1="88.14" x2="137.59" y2="89.86"/><line class="cls-5" x1="151.89" y1="73.07" x2="140.95" y2="85.91"/><line class="cls-5" x1="144.43" y1="74.32" x2="136.34" y2="83.64"/><circle class="cls-6" cx="173" cy="19.37" r="18"/><circle class="cls-6" cx="75" cy="19" r="18"/><circle class="cls-6" cx="19" cy="89.41" r="18"/><circle class="cls-6" cx="232" cy="89.39" r="18"/><line class="cls-7" x1="82" y1="39.41" x2="87" y2="54.41"/><line class="cls-7" x1="166.5" y1="39.91" x2="159.5" y2="58.91"/><line class="cls-7" x1="211.5" y1="95.91" x2="176.5" y2="100.91"/><line class="cls-7" x1="38.5" y1="94.91" x2="71.5" y2="100.91"/><path class="cls-8" d="M28,80.12a.67.67,0,0,0-.48-.21.68.68,0,0,0-.49.2l-.11.11a.72.72,0,0,0,0,1A11.32,11.32,0,0,1,27,96.8a.71.71,0,0,0,0,1l.11.11a.69.69,0,0,0,1,0,12.91,12.91,0,0,0,0-17.78Z"/><path class="cls-8" d="M23.93,84.18a.68.68,0,0,0-.49.2l-.05.06a.72.72,0,0,0,0,1,5.19,5.19,0,0,1,0,7.15.72.72,0,0,0,0,1l.05.05a.69.69,0,0,0,1,0,6.7,6.7,0,0,0,0-9.22A.67.67,0,0,0,23.93,84.18Z"/><path class="cls-8" d="M11,80.22l-.11-.11a.67.67,0,0,0-.48-.2.66.66,0,0,0-.49.21A12.91,12.91,0,0,0,10,97.9a.69.69,0,0,0,1,0l.11-.11a.72.72,0,0,0,0-1,11.32,11.32,0,0,1,0-15.59A.72.72,0,0,0,11,80.22Z"/><path class="cls-8" d="M14.61,84.44l-.05-.05a.68.68,0,0,0-.48-.2.67.67,0,0,0-.49.21,6.7,6.7,0,0,0,0,9.22.69.69,0,0,0,1,0l.06-.06a.72.72,0,0,0,0-1,5.19,5.19,0,0,1,0-7.15A.72.72,0,0,0,14.61,84.44Z"/><ellipse class="cls-8" cx="19" cy="89.01" rx="1.85" ry="1.85"/><path class="cls-9" d="M75,6.59c-3.88,0-8.12,2.69-8.12,7.4,0,5.45,5.42,10.55,8.12,13.57,2.7-3,8.12-8.12,8.12-13.57C83.12,9.32,78.79,6.59,75,6.59ZM74.92,18.1a3.61,3.61,0,1,1,3.73-3.61A3.67,3.67,0,0,1,74.92,18.1Z"/><path class="cls-10" d="M70.25,27c-1.58.34-2.59.84-2.59,1.39,0,1,3.28,1.83,7.34,1.83s7.34-.82,7.34-1.83c0-.56-1-1.06-2.59-1.39"/><path class="cls-11" d="M180.66,23.89h-1.48v0H165.55v-.05a5,5,0,0,1,.73-9.88l.41,0a6.32,6.32,0,0,1,10.88-1.19,2.67,2.67,0,0,1,.74-.11A2.72,2.72,0,0,1,181,14.89a4.56,4.56,0,0,1-.3,9Z"/><path class="cls-8" d="M236.65,81.24a1,1,0,0,1,.77.3l.58.63-7.82,5.91L238,94l-.58.63a1,1,0,0,1-.77.3,1.27,1.27,0,0,1-.65-.18l-7.72-5.31-1.46,1a2.34,2.34,0,0,1-.89,2.64,3,3,0,0,1-1.75.55h-.3a2.9,2.9,0,0,1-1.88-.9,2.28,2.28,0,0,1-.62-1.54,2.34,2.34,0,0,1,1-1.91,3,3,0,0,1,1.75-.55h.3l.3.05,1.25-.74-1.25-.74-.3.05h-.3a3,3,0,0,1-1.75-.55,2.34,2.34,0,0,1-1-1.91,2.28,2.28,0,0,1,.62-1.54,2.9,2.9,0,0,1,1.88-.9h.3a3,3,0,0,1,1.75.55,2.34,2.34,0,0,1,.89,2.64l1.46,1L236,81.41a1.27,1.27,0,0,1,.65-.18m-12.47,4.83h.13a1.31,1.31,0,0,0,.85-.41,1,1,0,0,0,.28-.7,1.06,1.06,0,0,0-.47-.87,1.37,1.37,0,0,0-.8-.25H224a1.31,1.31,0,0,0-.85.41,1,1,0,0,0,.19,1.57,1.38,1.38,0,0,0,.8.25m4.06,2.67a.67.67,0,1,0-.76-.67.72.72,0,0,0,.76.67m-4.06,3.57a1.36,1.36,0,0,0,.79-.25,1.06,1.06,0,0,0,.47-.87,1,1,0,0,0-.28-.7,1.32,1.32,0,0,0-.85-.41h-.13a1.38,1.38,0,0,0-.8.25,1,1,0,0,0-.19,1.57,1.31,1.31,0,0,0,.85.41h.14m12.47-12.83h0a3,3,0,0,0-1.55.43l0,0,0,0-6.37,4.38a4.11,4.11,0,0,0-1.7-2.73,4.74,4.74,0,0,0-2.77-.87l-.45,0a4.65,4.65,0,0,0-3,1.45,4,4,0,0,0,.41,5.85,4,4,0,0,0-.41,5.85,4.64,4.64,0,0,0,3,1.45l.46,0a4.74,4.74,0,0,0,2.77-.87,4.11,4.11,0,0,0,1.69-2.72L235,96.18l0,0,0,0a3,3,0,0,0,1.55.43,2.78,2.78,0,0,0,2.05-.86l.58-.62,1.32-1.42-1.54-1.17-6-4.52,6-4.52,1.54-1.17L239.28,81l-.58-.62a2.78,2.78,0,0,0-2.05-.86Z"/><path class="cls-12" d="M236.79,90.38s9-3.53,8.67-7.1"/><path class="cls-12" d="M228.89,99.38a7.52,7.52,0,0,1,4.19-6.63"/></svg>