<svg id="Layer_3" data-name="Layer 3" xmlns="http://www.w3.org/2000/svg" xmlns:xlink="http://www.w3.org/1999/xlink" viewBox="0 0 251 129.41"><defs><style>.cls-1,.cls-13,.cls-15,.cls-16,.cls-2,.cls-3,.cls-9{fill:none;}.cls-12,.cls-13,.cls-15,.cls-16,.cls-2,.cls-3,.cls-4,.cls-8{stroke:#0073ae;}.cls-12,.cls-13,.cls-2,.cls-3,.cls-8{stroke-linecap:round;stroke-linejoin:round;}.cls-12,.cls-13,.cls-15,.cls-16,.cls-2,.cls-4,.cls-8,.cls-9{stroke-width:2px;}.cls-2{opacity:0.2;}.cls-3{stroke-width:3px;stroke-dasharray:0 7;opacity:0.3;}.cls-10,.cls-12,.cls-4{fill:#fff;}.cls-15,.cls-16,.cls-4,.cls-9{stroke-miterlimit:10;}.cls-5{fill:#ffdbb2;}.cls-6{fill:#f80;opacity:0.5;}.cls-7{fill:#0073ae;}.cls-14,.cls-8{fill:#b2d5e6;}.cls-9{stroke:#ffdbb2;}.cls-11{clip-path:url(#clip-path);}.cls-15{fill-rule:evenodd;}</style><clipPath id="clip-path"><circle class="cls-1" cx="124.78" cy="83.4" r="9.76"/></clipPath></defs><title>Artboard 1</title><circle class="cls-2" cx="173" cy="19.37" r="18"/><circle class="cls-2" cx="75" cy="19" r="18"/><circle class="cls-2" cx="19" cy="89.41" r="18"/><circle class="cls-2" cx="232" cy="89.39" r="18"/><line class="cls-3" x1="82" y1="39.41" x2="87" y2="53.41"/><line class="cls-3" x1="165.5" y1="38.91" x2="158.5" y2="57.91"/><line class="cls-3" x1="209.5" y1="96.91" x2="179.5" y2="101.91"/><line class="cls-3" x1="40.5" y1="94.91" x2="73.5" y2="100.91"/><path class="cls-4" d="M175.21,124.89a3.29,3.29,0,0,1-3.29,3.28H78.18a3.29,3.29,0,0,1-3.29-3.28V54.69a3.29,3.29,0,0,1,3.29-3.28h93.74a3.29,3.29,0,0,1,3.29,3.28v70.2"/><polyline class="cls-5" points="171.41 118.11 78.69 118.11 78.69 55.31 171.41 55.31 171.41 118.11"/><polyline class="cls-6" points="171.41 56.83 78.69 56.83 78.69 55.31 171.41 55.31 171.41 56.83"/><path class="cls-6" d="M160,118.11h-70v-3.16a.63.63,0,0,1,.63-.63h68.69a.63.63,0,0,1,.63.63v3.16"/><circle class="cls-7" cx="125.05" cy="53.45" r="0.84"/><path class="cls-8" d="M138.28,121.9a4.35,4.35,0,0,1-4,2.71h-19a4.35,4.35,0,0,1-4-2.71H61.33v2a4.49,4.49,0,0,0,4.49,4.49h117.9a4.49,4.49,0,0,0,4.49-4.49v-2Z"/><line class="cls-9" x1="155.14" y1="113.23" x2="155.14" y2="118.11"/><rect class="cls-10" x="109.59" y="65.51" width="30.37" height="41.75" rx="1.58" ry="1.58"/><circle class="cls-5" cx="124.78" cy="83.4" r="9.76"/><g class="cls-11"><path class="cls-12" d="M132.14,90.67l-.71-2.53a1.23,1.23,0,0,0-.59-.69l-4.06-1.78h0v-.74a5,5,0,0,0,1-3.09v-1a3.08,3.08,0,0,0-3-3.16h0a3.08,3.08,0,0,0-3,3.16v1a5,5,0,0,0,1,3.1v.74h0l-4.06,1.78a1.23,1.23,0,0,0-.59.69l-.71,2.53a.36.36,0,0,0,.36.48l7,3.59h0l7-3.59A.36.36,0,0,0,132.14,90.67Z"/></g><circle class="cls-13" cx="124.78" cy="83.4" r="9.76"/><rect class="cls-5" x="113.39" y="100.75" width="10.3" height="3.8" rx="1.9" ry="1.9"/><rect class="cls-14" x="125.86" y="100.75" width="10.3" height="3.8" rx="1.9" ry="1.9"/><rect class="cls-13" x="8.53" y="81.06" width="19.57" height="16.25" rx="2.64" ry="2.64"/><line class="cls-13" x1="15.79" y1="100.02" x2="20.84" y2="100.02"/><line class="cls-13" x1="9.16" y1="93.92" x2="27.47" y2="93.92"/><rect class="cls-13" x="68.21" y="8.5" width="13" height="21" rx="3.33" ry="3.33"/><line class="cls-13" x1="73.56" y1="11.4" x2="75.86" y2="11.4"/><line class="cls-13" x1="74.33" y1="26.6" x2="75.09" y2="26.6"/><line class="cls-13" x1="68.98" y1="23.71" x2="80.45" y2="23.71"/><path class="cls-15" d="M174.79,23.89a1.07,1.07,0,0,0,1.37-.14c.4-.43,1.6-2,1.6-2a.7.7,0,0,1,1-.08c.57.39,1.63,1.22,3.84,2.72a.85.85,0,0,1,.19.83,11.92,11.92,0,0,1-4,4c-.54.37-1.81,0-1.81,0A20.57,20.57,0,0,1,163.3,15.51a3,3,0,0,1,0-1.41s.3-2,3.1-4.59a.72.72,0,0,1,.94,0,41.07,41.07,0,0,1,3.07,4.11.77.77,0,0,1-.1.86,9.46,9.46,0,0,0-1.89,2.3,1.18,1.18,0,0,0,.14.89A18.77,18.77,0,0,0,174.79,23.89Z"/><rect class="cls-16" x="221.75" y="78.79" width="6.75" height="22" rx="2.75" ry="2.75"/><path class="cls-16" d="M228.5,80.31H239A3.71,3.71,0,0,1,242.75,84V95.56A3.71,3.71,0,0,1,239,99.27H228.5a0,0,0,0,1,0,0v-19a0,0,0,0,1,0,0Z"/><rect class="cls-16" x="231.5" y="82.58" width="8.25" height="5.31" rx="1.19" ry="1.19"/><line class="cls-13" x1="231.5" y1="90.93" x2="232.25" y2="90.93"/><line class="cls-13" x1="235.25" y1="90.93" x2="236" y2="90.93"/><line class="cls-13" x1="239" y1="90.93" x2="239.75" y2="90.93"/><line class="cls-13" x1="231.5" y1="93.2" x2="232.25" y2="93.2"/><line class="cls-13" x1="235.25" y1="93.2" x2="236" y2="93.2"/><line class="cls-13" x1="239" y1="93.2" x2="239.75" y2="93.2"/><line class="cls-13" x1="231.5" y1="95.48" x2="232.25" y2="95.48"/><line class="cls-13" x1="235.25" y1="95.48" x2="236" y2="95.48"/><line class="cls-13" x1="239" y1="95.48" x2="239.75" y2="95.48"/></svg>