<svg id="Layer_3" data-name="Layer 3" xmlns="http://www.w3.org/2000/svg" viewBox="0 0 251 156.6"><defs><style>.cls-1{fill:#b2d5e6;}.cls-1,.cls-2,.cls-6,.cls-7{stroke:#0073ae;}.cls-1,.cls-2,.cls-3{stroke-miterlimit:10;}.cls-1,.cls-2,.cls-3,.cls-5,.cls-6{stroke-width:2px;}.cls-2{fill:#fff;}.cls-3{fill:#ffdbb2;stroke:#f80;}.cls-4,.cls-8{fill:#0073ae;}.cls-4{opacity:0.5;}.cls-5,.cls-6,.cls-7{fill:none;stroke-linecap:round;stroke-linejoin:round;}.cls-5{stroke:#fff;}.cls-6{opacity:0.2;}.cls-7{stroke-width:3px;stroke-dasharray:0 7;opacity:0.3;}</style></defs><title>img_mobile-1</title><rect class="cls-1" x="76.31" y="62.74" width="96.94" height="84.37" rx="2.46" ry="2.46"/><rect class="cls-1" x="110.52" y="62.74" width="62.73" height="84.37" rx="2.46" ry="2.46"/><path class="cls-2" d="M173.24,65a2.35,2.35,0,0,0-2.46-2.22H113A2.35,2.35,0,0,0,110.51,65V89.34c0,.11,0,.22,0,.33,0,7.86,14,14.24,31.37,14.24s31.37-6.38,31.37-14.24a6.6,6.6,0,0,0,0-.68l0-.1Z"/><rect class="cls-3" x="121.45" y="69.65" width="40.82" height="24.38" rx="1.87" ry="1.87"/><rect class="cls-2" x="125.97" y="107.17" width="7.19" height="7.2" rx="1.99" ry="1.99"/><rect class="cls-2" x="137.98" y="107.17" width="7.19" height="7.2" rx="1.99" ry="1.99"/><rect class="cls-2" x="149.99" y="107.17" width="7.19" height="7.2" rx="1.99" ry="1.99"/><rect class="cls-2" x="125.97" y="119.18" width="7.19" height="7.2" rx="1.99" ry="1.99"/><rect class="cls-2" x="137.98" y="119.18" width="7.19" height="7.2" rx="1.99" ry="1.99"/><rect class="cls-2" x="149.99" y="119.18" width="7.19" height="7.2" rx="1.99" ry="1.99"/><rect class="cls-2" x="125.97" y="131.19" width="7.19" height="7.2" rx="1.99" ry="1.99"/><rect class="cls-2" x="137.98" y="131.19" width="7.19" height="7.2" rx="1.99" ry="1.99"/><rect class="cls-2" x="149.99" y="131.19" width="7.19" height="7.2" rx="1.99" ry="1.99"/><path class="cls-4" d="M84.51,142.19a10.86,10.86,0,0,0,0,4.83H106a10.86,10.86,0,0,0,0-4.83c-.93-8.76-3.64-40,1.53-67.1a13.38,13.38,0,0,0-.79-12.36H83.77A13.38,13.38,0,0,0,83,75.1C88.15,102.19,85.44,133.43,84.51,142.19Z"/><path class="cls-4" d="M173.23,64.92a2.1,2.1,0,0,0-.65-1.4,2.45,2.45,0,0,0-1.79-.77h-3.46v84.37h3.46a2.46,2.46,0,0,0,2.46-2.46V65.2A2.47,2.47,0,0,0,173.23,64.92Z"/><path class="cls-2" d="M105.26,75.1a13.4,13.4,0,1,0-24.51,0c5.17,27.1,2.46,58.33,1.53,67.1a11,11,0,1,0,21.44,0C102.8,133.43,100.09,102.19,105.26,75.1Z"/><line class="cls-5" x1="139.05" y1="88.14" x2="137.59" y2="89.86"/><line class="cls-5" x1="151.89" y1="73.07" x2="140.95" y2="85.91"/><line class="cls-5" x1="144.43" y1="74.32" x2="136.34" y2="83.64"/><circle class="cls-6" cx="173" cy="19.37" r="18"/><circle class="cls-6" cx="75" cy="19" r="18"/><circle class="cls-6" cx="19" cy="89.41" r="18"/><circle class="cls-6" cx="232" cy="89.39" r="18"/><line class="cls-7" x1="82" y1="39.41" x2="87" y2="54.41"/><line class="cls-7" x1="166.5" y1="39.91" x2="159.5" y2="58.91"/><line class="cls-7" x1="211.5" y1="95.91" x2="176.5" y2="100.91"/><line class="cls-7" x1="38.5" y1="94.91" x2="71.5" y2="100.91"/><path class="cls-8" d="M75,7.47A11.53,11.53,0,1,0,86.53,19,11.54,11.54,0,0,0,75,7.47ZM85.48,16.4a1,1,0,0,0-.73.46,1,1,0,0,0,.08,1.1,1.33,1.33,0,0,1,.16.34l-.1.08a1.27,1.27,0,0,0-.57.83l-.2.13A2,2,0,0,0,83,21.52c.22,1.13,0,1.88-1.63,4.09-.5.67-1,.92-1.23.94a.37.37,0,0,1-.31-.14,3,3,0,0,1-.28-2.19c.49-3.52-1.09-4.48-1.27-4.57a.68.68,0,0,0-.61,0,3.47,3.47,0,0,1-1.35.31c-.93,0-1.52-.55-1.81-1.67a2.12,2.12,0,0,1,1.07-2.61c.44-.32.89-.66.93-1.22a1.29,1.29,0,0,0-.42-1,.72.72,0,0,1-.26-.55,1,1,0,0,1,.41-.59,3,3,0,0,0,2.17-.91,1,1,0,0,0,.06-.93h0l.15,0,.21-.06A2.29,2.29,0,0,0,80,9.44,10.84,10.84,0,0,1,85.48,16.4ZM75,8.2c.32,0,.64,0,.95,0a1,1,0,0,1,0,.11c0,.1-.17.19-.37.25l-.23.05a1.79,1.79,0,0,0-1.19.68,2.24,2.24,0,0,1-.29.28.92.92,0,0,1-.87.11,1.5,1.5,0,0,1-.17-1.09l-.45-.11A10.78,10.78,0,0,1,75,8.2ZM70.3,9.28A1.85,1.85,0,0,0,70.7,11a3.18,3.18,0,0,0,.5.41l.25.18a1.22,1.22,0,0,1,.51,1,4.67,4.67,0,0,1-.82,1.14,4.85,4.85,0,0,0-.53.68c0,.08-.1.18-.46,0a1.39,1.39,0,0,1-.31-.21,1.23,1.23,0,0,0-.8-.35,1.35,1.35,0,0,0-.95.44l-.09.08a4.93,4.93,0,0,1-1.52.75l-.53.2a4.19,4.19,0,0,0-1.36.83A10.85,10.85,0,0,1,70.3,9.28ZM64.2,19c0-.06,0-.13,0-.19a1.18,1.18,0,0,0,1,.45c.31,0,.73,0,1.61.79a11,11,0,0,0,2.67,1.71c.73.35.92.47,1,.75a1.48,1.48,0,0,1-.15,1.07A2.53,2.53,0,0,0,70.11,25l0,0a2.45,2.45,0,0,0-1.33,2.13c0,.21-.05.42-.07.64A10.79,10.79,0,0,1,64.2,19ZM75,29.8a10.73,10.73,0,0,1-5.62-1.58c0-.36.05-.7.1-1,.15-1.14.6-1.39,1-1.59s.48-.27.4-.7a1.79,1.79,0,0,1,.2-1.05,2.18,2.18,0,0,0,.18-1.55c-.18-.63-.66-.86-1.39-1.21a10.32,10.32,0,0,1-2.51-1.61,2.94,2.94,0,0,0-2.08-1c-.36,0-.51,0-.74-.86a3.53,3.53,0,0,1-.12-.61V17l.35.16A2.58,2.58,0,0,1,66.22,16l.51-.19a5.56,5.56,0,0,0,1.74-.88l.1-.09a.94.94,0,0,1,.42-.26.52.52,0,0,1,.37.18,2.08,2.08,0,0,0,.46.31c.9.44,1.3-.07,1.43-.31a5.37,5.37,0,0,1,.44-.55,3.65,3.65,0,0,0,1-1.53A1.91,1.91,0,0,0,71.91,11l-.29-.21a2.59,2.59,0,0,1-.39-.31,1.12,1.12,0,0,1,0-1.45l-.12-.1q.47-.18,1-.32a2.24,2.24,0,0,0,.35,1.61l.05.07.08,0a1.61,1.61,0,0,0,.76.19,1.63,1.63,0,0,0,1-.31,2.83,2.83,0,0,0,.39-.37A1.64,1.64,0,0,1,75,9.51a1.66,1.66,0,0,1,.44-.14l.27-.06a1.17,1.17,0,0,0,.88-.74,1.85,1.85,0,0,0,0-.21v0a10.7,10.7,0,0,1,2.66.78,1.55,1.55,0,0,1-.78.53l-.2.06c-.4.12-.56.18-.66.3l-.51.6h.51l.06.15a.27.27,0,0,1,0,.26,2.63,2.63,0,0,1-1.71.57h-.1l-.08.06a1.84,1.84,0,0,0-.78,1.15,1.4,1.4,0,0,0,.46,1.14c.23.24.22.39.22.44,0,.22-.26.41-.64.69a2.84,2.84,0,0,0-1.34,3.38,2.51,2.51,0,0,0,2.52,2.22,4.22,4.22,0,0,0,1.64-.37c.19.13,1.26,1,.87,3.81a3.57,3.57,0,0,0,.45,2.77,1.09,1.09,0,0,0,.84.39h0A2.6,2.6,0,0,0,81.91,26c1.66-2.23,2-3.23,1.76-4.66-.15-.77.28-1.1.82-1.41.31-.18.55-.33.55-.59s.11-.27.29-.4c.42-.32.57-.63.13-1.38-.05-.09-.14-.26-.08-.36a.33.33,0,0,1,.24-.11A10.79,10.79,0,0,1,75,29.8Z"/><path class="cls-8" d="M75,30.8A11.8,11.8,0,1,1,86.8,19,11.82,11.82,0,0,1,75,30.8ZM75,7.74A11.26,11.26,0,1,0,86.26,19,11.27,11.27,0,0,0,75,7.74Zm0,22.33a11,11,0,0,1-5.76-1.62l-.14-.09V28.2c0-.36.05-.71.1-1a2,2,0,0,1,1.1-1.79c.25-.14.31-.18.27-.41a2,2,0,0,1,.22-1.2A1.94,1.94,0,0,0,71,22.39c-.14-.49-.48-.67-1.24-1a10.53,10.53,0,0,1-2.57-1.65,2.7,2.7,0,0,0-1.91-.9c-.53,0-.75-.16-1-1.06a3.83,3.83,0,0,1-.13-.66v0l0-.08-.06.05.26-1a11.09,11.09,0,0,1,5.85-7l.53-.26v0L71,8.68l.32-.12-.1,0,1.19-.31h0A11.22,11.22,0,0,1,76,8l.3,0-.05.29a1.22,1.22,0,0,1,0,.14.77.77,0,0,1-.56.43l-.24.06a1.52,1.52,0,0,0-1,.6,2.51,2.51,0,0,1-.33.32,1.18,1.18,0,0,1-1.13.14l-.09,0,0-.08a1.78,1.78,0,0,1-.24-1l-.18,0a2,2,0,0,0,.33,1.27l0,0A1.4,1.4,0,0,0,74.12,10a2.66,2.66,0,0,0,.35-.33,1.34,1.34,0,0,1,.94-.54L75.68,9a.91.91,0,0,0,.69-.55,1.73,1.73,0,0,0,0-.18l0-.26.27,0a11,11,0,0,1,2.73.8l.32.14-.21.27a1.81,1.81,0,0,1-.92.63l-.21.06c-.35.11-.48.15-.53.22l-.13.15h.11l.12.31a.54.54,0,0,1,0,.51c-.31.52-1.55.67-1.92.7l0,0a1.61,1.61,0,0,0-.67,1,1.14,1.14,0,0,0,.39.92.85.85,0,0,1,.29.64c0,.36-.35.59-.75.89A2.58,2.58,0,0,0,74,18.39a2.27,2.27,0,0,0,2.26,2,3.94,3.94,0,0,0,1.52-.34l.14-.06.13.09c.24.16,1.39,1.11,1,4.07a3.38,3.38,0,0,0,.39,2.55.81.81,0,0,0,.63.3,2.37,2.37,0,0,0,1.61-1.12c1.6-2.15,2-3.11,1.71-4.45a1.5,1.5,0,0,1,.94-1.7c.26-.15.42-.25.42-.36a.77.77,0,0,1,.4-.62c.29-.22.44-.38.06-1a.62.62,0,0,1-.08-.64.56.56,0,0,1,.45-.24l.26,0,0,.25a11.06,11.06,0,0,1-10.9,13Zm-5.34-2a10.52,10.52,0,0,0,15.86-8.91l0,0c-.16.12-.19.15-.19.19,0,.42-.35.63-.68.83-.56.33-.79.58-.69,1.13.29,1.52-.1,2.57-1.81,4.87a2.85,2.85,0,0,1-2,1.34h0a1.38,1.38,0,0,1-1.1-.48,3.81,3.81,0,0,1-.52-3c.31-2.28-.36-3.19-.65-3.46a4.45,4.45,0,0,1-1.59.33,2.79,2.79,0,0,1-2.78-2.42,3.11,3.11,0,0,1,1.44-3.67c.22-.16.52-.39.53-.5s0-.11-.14-.23a1.65,1.65,0,0,1-.53-1.37,2.1,2.1,0,0,1,.89-1.33l.14-.1H76a2.62,2.62,0,0,0,1.5-.43h-.9l.89-1a1.51,1.51,0,0,1,.79-.39l.2-.06a1.37,1.37,0,0,0,.38-.18,10.48,10.48,0,0,0-2-.56h0a1.43,1.43,0,0,1-1.07.92l-.29.07a1.49,1.49,0,0,0-.37.11,1.46,1.46,0,0,0-.29.27,3.17,3.17,0,0,1-.43.4,2,2,0,0,1-2,.15l-.17-.13-.05-.07A2.5,2.5,0,0,1,71.77,9l-.2.07-.15.17a.85.85,0,0,0,0,1.08,2.54,2.54,0,0,0,.34.28l.31.23A2.18,2.18,0,0,1,73,12.69a3.71,3.71,0,0,1-1.06,1.68,6.29,6.29,0,0,0-.41.5,1.24,1.24,0,0,1-1.79.42,2.35,2.35,0,0,1-.51-.35c-.13-.11-.13-.11-.21-.11s0,0-.23.19l-.1.09a5.74,5.74,0,0,1-1.81.93l-.51.19a2.33,2.33,0,0,0-1.33,1l-.11.25-.15-.07,0,.17c.18.65.22.65.48.66a3.17,3.17,0,0,1,2.26,1A10.1,10.1,0,0,0,70,20.86c.74.36,1.32.64,1.53,1.38A2.44,2.44,0,0,1,71.3,24a1.55,1.55,0,0,0-.19.9.85.85,0,0,1-.53,1c-.34.19-.7.39-.83,1.39C69.71,27.5,69.69,27.78,69.66,28.07ZM64.39,16.71l.25.08a3.15,3.15,0,0,1,1.49-1.06l.46-.18a5.52,5.52,0,0,0,1.71-.85l.1-.08a1.06,1.06,0,0,1,.58-.33.79.79,0,0,1,.56.24,1.82,1.82,0,0,0,.4.28c.5.25.86.18,1.07-.2a4.72,4.72,0,0,1,.47-.59,3.67,3.67,0,0,0,.93-1.39,1.64,1.64,0,0,0-.67-1.41l-.27-.2a2.76,2.76,0,0,1-.43-.35,1.39,1.39,0,0,1-.18-1.6l-.19-.17-.11.44a1.57,1.57,0,0,0,.34,1.46,3,3,0,0,0,.46.37l.26.19a1.5,1.5,0,0,1,.61,1.24c0,.22-.25.54-.88,1.28a5,5,0,0,0-.5.64c-.22.41-.67.19-.82.12a1.61,1.61,0,0,1-.36-.25,1,1,0,0,0-.64-.28,1.08,1.08,0,0,0-.75.37l-.09.08a5.13,5.13,0,0,1-1.6.8l-.52.2a4,4,0,0,0-1.27.77ZM70,9.76a10.55,10.55,0,0,0-4.86,5.65,5.49,5.49,0,0,1,.74-.36l.54-.2a4.74,4.74,0,0,0,1.44-.71l.09-.08a1.61,1.61,0,0,1,1.14-.5A1.5,1.5,0,0,1,70,14a1.09,1.09,0,0,0,.25.18l.14.06a5.92,5.92,0,0,1,.53-.67,5,5,0,0,0,.76-1,1,1,0,0,0-.41-.75L71,11.62a3.43,3.43,0,0,1-.54-.44A2.06,2.06,0,0,1,70,9.76Zm3.2-.26a.63.63,0,0,0,.52-.1,1.94,1.94,0,0,0,.25-.25,2.49,2.49,0,0,1,.61-.52,1.89,1.89,0,0,1,.38-.16,10.52,10.52,0,0,0-1.84.18v0A1.24,1.24,0,0,0,73.16,9.5ZM68.91,28.25,68.52,28a11.11,11.11,0,0,1-4.59-9V18l.48.64a.91.91,0,0,0,.81.34,2.51,2.51,0,0,1,1.79.85,10.75,10.75,0,0,0,2.62,1.67c.73.35,1,.51,1.15.92a1.73,1.73,0,0,1-.16,1.25,2.27,2.27,0,0,0-.24,1.23l0,.18-.16.09A2.2,2.2,0,0,0,69,27.14c0,.2-.05.41-.07.63Zm-4.43-8.87a10.57,10.57,0,0,0,4,7.86l0-.17a2.74,2.74,0,0,1,1.34-2.26,3,3,0,0,1,.29-1.32,1.23,1.23,0,0,0,.14-.9c0-.16-.15-.24-.86-.58a11.24,11.24,0,0,1-2.74-1.75c-.81-.71-1.17-.71-1.44-.72A1.81,1.81,0,0,1,64.48,19.38Zm15.6,7.43a.65.65,0,0,1-.49-.23,3.21,3.21,0,0,1-.34-2.4c.47-3.4-1.07-4.26-1.13-4.3a.4.4,0,0,0-.37,0,3.75,3.75,0,0,1-1.47.34c-1.06,0-1.75-.63-2.07-1.87a2.39,2.39,0,0,1,1.17-2.9c.41-.3.79-.58.82-1a1,1,0,0,0-.34-.79,1,1,0,0,1-.34-.77A1.3,1.3,0,0,1,76,12.1l.06-.05h.08a2.64,2.64,0,0,0,2-.78.73.73,0,0,0,0-.68l-.12-.28.64-.21a2,2,0,0,0,1.09-.8l.14-.2.22.11a11.1,11.1,0,0,1,5.61,7.13l.07.28-.29,0A.72.72,0,0,0,85,17a.8.8,0,0,0,.08.82,1.58,1.58,0,0,1,.19.43l0,.15-.12.1-.1.08a1,1,0,0,0-.49.66l0,.12-.1.07-.18.11a1.73,1.73,0,0,0-1.07,1.92c.23,1.22,0,2-1.68,4.3a2.25,2.25,0,0,1-1.43,1Zm-2.15-7.52a.93.93,0,0,1,.44.11c.2.11,1.92,1.14,1.41,4.85a2.91,2.91,0,0,0,.22,2,.12.12,0,0,0,.09,0c.15,0,.54-.18,1-.83,1.67-2.25,1.77-2.91,1.58-3.87A2.23,2.23,0,0,1,84,19.1l.1-.06a1.54,1.54,0,0,1,.59-.83l-.07-.12a1.31,1.31,0,0,1-.09-1.37,1.17,1.17,0,0,1,.63-.52,10.56,10.56,0,0,0-5.06-6.41,2.57,2.57,0,0,1-1.23.82l-.1,0a1.26,1.26,0,0,1-.16.9,2.93,2.93,0,0,1-2.29,1,.73.73,0,0,0-.25.36s0,.13.19.33a1.55,1.55,0,0,1,.49,1.22,2,2,0,0,1-1,1.41,1.87,1.87,0,0,0-1,2.32c.26,1,.75,1.46,1.55,1.46a3.17,3.17,0,0,0,1.23-.28A1,1,0,0,1,77.92,19.29Z"/><path class="cls-8" d="M178.53,29.07l-.17,0a.72.72,0,0,1-.47-.37L174,21.28l-1.87,1.79.07,3.14a.73.73,0,0,1-.22.54l-.82.8a.69.69,0,0,1-.54.2.73.73,0,0,1-.52-.25l-2.47-2.87-3-2.38a.72.72,0,0,1-.05-1.09l.82-.8a.82.82,0,0,1,.52-.2l3.27.06L171,18.44l-7.63-3.71a.73.73,0,0,1-.27-1.08l1.13-1.56a.73.73,0,0,1,.71-.29l10.48,1.82,3.38-3.29a2.47,2.47,0,0,1,2.74-.47,1.94,1.94,0,0,1,.71.44h0a2,2,0,0,1,.47.72,2.35,2.35,0,0,1-.49,2.69L178.92,17l1.93,10.09a.73.73,0,0,1-.3.73l-1.61,1.1A.73.73,0,0,1,178.53,29.07Zm-4.33-9.71h.12a.73.73,0,0,1,.53.38l4,7.54.54-.37-1.91-10a.73.73,0,0,1,.21-.66l3.65-3.54a.9.9,0,0,0,.18-1l0-.06a.62.62,0,0,0-.11-.2l-.07-.06a.67.67,0,0,0-.21-.11,1.07,1.07,0,0,0-1.2.16l-3.65,3.54a.73.73,0,0,1-.63.19l-10.39-1.81-.36.49,7.78,3.78a.72.72,0,0,1,.19,1.17L170,21.47a.8.8,0,0,1-.52.21l-3.27-.06,0,0,2.39,1.91.1.09,2,2.34,0,0-.07-3.14a.73.73,0,0,1,.22-.54l2.79-2.68A.72.72,0,0,1,174.2,19.37Zm7.59-8.51h0Z"/><path class="cls-8" d="M26.25,97.23H11.75A.72.72,0,0,1,11,96.5V87.8a.72.72,0,0,1,.35-.62l7.25-4.35a.73.73,0,0,1,.75,0l7.25,4.35a.72.72,0,0,1,.35.62v8.7A.72.72,0,0,1,26.25,97.23ZM12.48,95.78h13V88.21L19,84.3l-6.52,3.91Z"/><path class="cls-8" d="M27.7,97.23H10.3a.72.72,0,0,1,0-1.45H27.7a.72.72,0,0,1,0,1.45Z"/><path class="cls-8" d="M29.15,87.32a.72.72,0,0,1-.38-.11l-9.76-6-9.76,6A.72.72,0,0,1,8.47,86L18.62,79.7a.73.73,0,0,1,.76,0L29.53,86a.72.72,0,0,1-.38,1.34Z"/><path class="cls-8" d="M20.45,97.23h-2.9a.72.72,0,0,1-.72-.72v-5A1.5,1.5,0,0,1,18.32,90h1.36a1.5,1.5,0,0,1,1.49,1.49v5A.72.72,0,0,1,20.45,97.23Zm-2.17-1.45h1.44v-4.3l-1.4,0Z"/><path class="cls-8" d="M238.5,97.36h-13A1.47,1.47,0,0,1,224,95.89V82.2a3,3,0,0,1,3-3h10a3,3,0,0,1,3,3V95.89A1.47,1.47,0,0,1,238.5,97.36ZM227,80.69a1.51,1.51,0,0,0-1.51,1.51V95.89l13,0a0,0,0,0,0,0,0V82.2A1.51,1.51,0,0,0,237,80.69Z"/><rect class="cls-8" x="226.2" y="90.11" width="11.6" height="1.45"/><path class="cls-8" d="M229.1,94.46h-2.17a.72.72,0,1,1,0-1.45h2.17a.72.72,0,1,1,0,1.45Z"/><path class="cls-8" d="M237.07,94.46H234.9a.72.72,0,1,1,0-1.45h2.17a.72.72,0,1,1,0,1.45Z"/><path class="cls-8" d="M241.42,88.66a.72.72,0,0,1-.72-.72V86.16a.39.39,0,0,0-.39-.39h-1.06a.72.72,0,1,1,0-1.45h1.06a1.84,1.84,0,0,1,1.84,1.84v1.78A.72.72,0,0,1,241.42,88.66Z"/><path class="cls-8" d="M222.58,88.66a.72.72,0,0,1-.72-.72V86.16a1.84,1.84,0,0,1,1.84-1.84h1.06a.72.72,0,1,1,0,1.45H223.7a.39.39,0,0,0-.39.39v1.78A.72.72,0,0,1,222.58,88.66Z"/><path class="cls-8" d="M227.65,97.36v.72h-.72v-.72h.72m0-1.45h-.72a1.45,1.45,0,0,0-1.45,1.45v.72a1.45,1.45,0,0,0,1.45,1.45h.72a1.45,1.45,0,0,0,1.45-1.45v-.72a1.45,1.45,0,0,0-1.45-1.45Z"/><path class="cls-8" d="M237.07,97.36v.72h-.72v-.72h.72m0-1.45h-.72a1.45,1.45,0,0,0-1.45,1.45v.72a1.45,1.45,0,0,0,1.45,1.45h.72a1.45,1.45,0,0,0,1.45-1.45v-.72a1.45,1.45,0,0,0-1.45-1.45Z"/><path class="cls-8" d="M231.28,89.3a.63.63,0,0,1-.48-1.05l5.07-5.8a.63.63,0,0,1,1,.84l-5.07,5.8A.63.63,0,0,1,231.28,89.3Z"/><path class="cls-8" d="M228.38,87.85a.63.63,0,0,1-.49-1l3.62-4.35a.63.63,0,1,1,1,.81l-3.62,4.35A.63.63,0,0,1,228.38,87.85Z"/></svg>